<svg xmlns="http://www.w3.org/2000/svg" version="1.1" viewBox="-5.0 -10.0 110.0 135.0">
 <path d="m40.258 27.355c-3.3086-2.4531-5.4531-6.3867-5.4531-10.816 0-7.4258 6.0312-13.457 13.457-13.457 7.4297 0 13.461 6.0312 13.461 13.457 0 4.4102-2.1289 8.332-5.4141 10.785 2.0508 0.48047 3.9648 1.3164 5.668 2.4492 2.0469-3.1367 5.5898-5.207 9.6094-5.207 6.332 0 11.473 5.1406 11.473 11.477 0 3.8828-1.9297 7.3203-4.8906 9.3945 6.6875 2.4375 11.465 8.8516 11.465 16.383v5.2773c0 0.035156-0.046874 8.5234-0.046874 8.5234 1.9492 0.65625 3.3594 2.5 3.3594 4.668 0 2.7188-2.207 4.9219-4.9219 4.9219-2.7188 0-4.9219-2.2031-4.9219-4.9219 0-2.168 1.4062-4.0117 3.3594-4.668v-5.0312l-11.727 9.3945v15.285c0 0.52344-0.26172 1.0195-0.70312 1.3047-0.44141 0.28906-0.99609 0.33984-1.4805 0.12891-16.508-7.1602-32.391-7.1758-47.684-0.33203-0.42188 0.84375-1.3516 0.46094-1.3516 0.46094l-0.066406 0.023438c-0.30078 0.09375-1.4961 0.33984-1.4961-1.6055v-15.535l-14.297-11.188c-0.38672-0.30078-0.60938-0.76953-0.60156-1.2617v-0.16797-5.2773c0-7.5312 4.7773-13.945 11.469-16.383-2.9609-2.0742-4.8945-5.5117-4.8945-9.3945 0-6.3359 5.1445-11.477 11.473-11.477 4.0234 0 7.5625 2.0703 9.6133 5.207 1.668-1.1055 3.5391-1.9375 5.543-2.418zm-15.18 65.52v-16.461c14.934-6.6211 30.438-6.6992 46.531 0.023438v16.488c-16.066-6.4023-31.566-6.3203-46.531-0.050781zm62.945-14.383c0.98828 0 1.7969 0.80469 1.7969 1.7969 0 0.99219-0.80859 1.7969-1.7969 1.7969-0.99609 0-1.7969-0.80469-1.7969-1.7969 0-0.99219 0.80078-1.7969 1.7969-1.7969zm-13.289-2.5117 10.746-8.6094-37.137-26.527-37.117 26.512 10.727 8.3906v-0.33984c0-0.60938 0.35547-1.1602 0.91016-1.418 16.32-7.5352 33.289-7.668 50.93-0.015625 0.57422 0.24609 0.94141 0.8125 0.94141 1.4336zm-48.875-28.465h-1.375c-7.8984 0-14.305 6.4023-14.305 14.305v2.4414l16.738-11.953v-4.7539c-0.34766-0.027344-0.70312-0.039063-1.0586-0.039063zm46.348 0h-1.375c-0.35547 0-0.71094 0.011719-1.0625 0.039063v4.7539l16.738 11.953v-2.4414c0-7.9023-6.4062-14.305-14.301-14.305zm-5.5625 2.5586v-5.7734c0-7.8984-6.4023-14.305-14.305-14.305h-7.9922c-7.9023 0-14.305 6.4062-14.305 14.305v5.7734l17.395-12.422c0.54297-0.39062 1.2734-0.39062 1.8164 0zm4.9414-5.6836c4.6094 0 8.3477-3.7383 8.3477-8.3477s-3.7383-8.3516-8.3477-8.3516c-3.0352 0-5.6992 1.625-7.1562 4.0508 3.2656 3.1484 5.3125 7.5625 5.3398 12.453 0.58203 0.12891 1.1914 0.19531 1.8164 0.19531zm-39.324-12.648c-1.4609-2.4258-4.1211-4.0508-7.1602-4.0508-4.6055 0-8.3477 3.7422-8.3477 8.3516s3.7422 8.3477 8.3477 8.3477c0.625 0 1.2344-0.066406 1.8164-0.19531 0.03125-4.8906 2.0742-9.3047 5.3438-12.453zm16-25.535c5.7031 0 10.336 4.6328 10.336 10.332 0 5.7031-4.6328 10.332-10.336 10.332-5.6992 0-10.332-4.6289-10.332-10.332 0-5.6992 4.6328-10.332 10.332-10.332z" fill-rule="evenodd"/>
<text x="0.0" y="117.5" font-size="5.0" font-weight="bold" font-family="Arbeit Regular, Helvetica, Arial-Unicode, Arial, Sans-serif" fill="#000000">Created by TrendWaveMaker</text><text x="0.0" y="122.5" font-size="5.0" font-weight="bold" font-family="Arbeit Regular, Helvetica, Arial-Unicode, Arial, Sans-serif" fill="#000000">from Noun Project</text></svg>