<svg xmlns="http://www.w3.org/2000/svg" version="1.1" viewBox="-5.0 -10.0 110.0 135.0">
 <path d="m64 20c-1.6016 0-3.1094 0.62109-4.2383 1.7617l-17 17c-1.1289 1.1289-1.7617 2.6406-1.7617 4.2383v8c0 3.3086 2.6914 6 6 6h8c1.6016 0 3.1094-0.62109 4.2383-1.7617l17-17c1.1289-1.1289 1.7617-2.6406 1.7617-4.2383 0-7.7188-6.2812-14-14-14zm10 14.41c0 0.26953-0.10938 0.51953-0.28906 0.71094l-17.289 17.289c-0.37891 0.37891-0.87891 0.58984-1.4102 0.58984h-8c-1.1016 0-2-0.89844-2-2v-8c0-0.53125 0.21094-1.0391 0.58984-1.4102l17.289-17.289c0.19141-0.19141 0.44141-0.28906 0.71094-0.28906h0.41016c5.5195 0 10 4.4805 10 10v0.41016z"/>
 <path d="m77 54c-1.1016 0-2 0.89844-2 2v5c0 3.3086-2.6914 6-6 6h-6.5117c-1.0703 0-2.0703 0.42188-2.8281 1.1719l-6.5391 6.5391c-1.6914 1.6914-4.5508 1.6914-6.2383 0l-6.5391-6.5391c-0.76172-0.75-1.7617-1.1719-2.8281-1.1719h-6.5195c-3.3086 0-6-2.6914-6-6v-31c0-3.3086 2.6914-6 6-6h9c1.1016 0 2-0.89844 2-2s-0.89844-2-2-2h-9c-5.5117 0-10 4.4883-10 10v31c0 5.5117 4.4883 10 10 10h6.5117l6.2891 6.2891c1.6484 1.6484 3.7188 2.6094 5.8203 2.6992 2.3984 0.089844 4.6406-0.76953 6.3203-2.4609l6.5391-6.5391h6.5117c5.5117 0 10-4.4883 10-10v-5c0-1.1016-0.89844-2-2-2z"/>
<text x="0.0" y="117.5" font-size="5.0" font-weight="bold" font-family="Arbeit Regular, Helvetica, Arial-Unicode, Arial, Sans-serif" fill="#000000">Created by Gregor Cresnar</text><text x="0.0" y="122.5" font-size="5.0" font-weight="bold" font-family="Arbeit Regular, Helvetica, Arial-Unicode, Arial, Sans-serif" fill="#000000">from Noun Project</text></svg>